<svg xmlns="http://www.w3.org/2000/svg" xmlns:xlink="http://www.w3.org/1999/xlink" width="500" zoomAndPan="magnify" viewBox="0 0 375 374.999991" height="500" preserveAspectRatio="xMidYMid meet" version="1.0"><defs><g/><clipPath id="f4f34ce1c5"><path d="M 67.742188 67.742188 L 207 67.742188 L 207 184 L 67.742188 184 Z M 67.742188 67.742188 " clip-rule="nonzero"/></clipPath><clipPath id="9e9163a8e5"><path d="M 168 191 L 306.992188 191 L 306.992188 306.992188 L 168 306.992188 Z M 168 191 " clip-rule="nonzero"/></clipPath></defs><g clip-path="url(#f4f34ce1c5)"><path fill="#4158d0" d="M 206.046875 129.75 C 197.640625 123.402344 186.996094 119.476562 175.976562 119.476562 C 174.480469 119.476562 172.988281 119.476562 171.679688 119.664062 C 171.304688 119.664062 170.933594 119.664062 170.558594 119.664062 C 165.328125 119.664062 160.660156 115.929688 159.539062 110.886719 C 158.605469 106.589844 159.351562 100.613281 168.878906 97.253906 L 169.066406 97.066406 C 174.855469 94.824219 182.886719 92.023438 197.453125 92.023438 C 200.253906 92.023438 203.242188 92.210938 206.046875 92.582031 L 206.046875 90.34375 C 206.046875 77.828125 196.519531 67.742188 184.941406 67.742188 L 88.941406 67.742188 C 77.363281 67.742188 67.835938 77.828125 67.835938 90.34375 L 67.835938 131.246094 C 67.835938 143.757812 77.363281 153.84375 88.941406 153.84375 L 127.042969 153.84375 L 174.109375 182.980469 C 174.667969 183.351562 175.414062 183.539062 176.164062 183.539062 C 178.402344 183.539062 180.269531 181.484375 179.898438 179.246094 L 176.164062 153.84375 L 184.941406 153.84375 C 196.519531 153.84375 206.046875 143.757812 206.046875 131.246094 Z M 206.046875 129.75 " fill-opacity="1" fill-rule="nonzero"/></g><path fill="#4158d0" d="M 171.679688 104.164062 C 169.253906 105.097656 166.078125 106.03125 166.824219 109.394531 C 167.199219 111.261719 169.066406 112.566406 170.746094 112.382812 C 190.917969 110.511719 211.648438 120.226562 222.292969 136.660156 C 227.523438 144.691406 229.765625 152.722656 229.765625 161.5 L 216.691406 161.5 C 215.195312 161.5 213.890625 162.25 213.328125 163.554688 C 212.769531 164.863281 212.769531 166.355469 213.703125 167.476562 L 240.972656 202.777344 C 241.71875 203.710938 242.839844 204.269531 243.960938 204.269531 C 245.078125 204.269531 246.199219 203.710938 246.949219 202.777344 L 274.214844 167.476562 C 275.148438 166.355469 275.148438 164.863281 274.589844 163.554688 C 274.027344 162.25 272.722656 161.5 271.226562 161.5 L 257.96875 161.5 C 258.714844 151.976562 257.21875 142.636719 253.484375 134.792969 C 244.144531 114.25 220.988281 99.867188 197.265625 99.867188 C 184.378906 99.496094 177.28125 102.109375 171.679688 104.164062 Z M 246.949219 137.59375 C 250.496094 145.4375 251.617188 154.964844 250.308594 164.488281 C 250.121094 165.609375 250.496094 166.730469 251.242188 167.476562 C 251.992188 168.226562 252.925781 168.785156 254.042969 168.785156 L 263.757812 168.785156 L 244.144531 194.1875 L 224.347656 168.785156 L 233.3125 168.785156 C 235.179688 168.785156 236.863281 167.292969 237.050781 165.421875 C 237.984375 153.46875 235.367188 143.011719 228.644531 132.550781 C 220.800781 120.226562 207.914062 111.261719 193.53125 106.964844 C 194.839844 106.964844 196.148438 106.964844 197.453125 106.964844 C 218.558594 106.964844 238.917969 119.476562 246.949219 137.59375 Z M 246.949219 137.59375 " fill-opacity="1" fill-rule="nonzero"/><g clip-path="url(#9e9163a8e5)"><path fill="#4158d0" d="M 285.796875 191.011719 L 265.625 191.011719 L 253.109375 207.257812 C 250.871094 209.875 247.507812 211.554688 244.144531 211.554688 C 240.785156 211.554688 237.421875 209.875 235.367188 207.257812 L 222.667969 191.011719 L 189.796875 191.011719 C 178.21875 191.011719 168.691406 201.097656 168.691406 213.609375 L 168.691406 254.511719 C 168.691406 267.023438 178.21875 277.109375 189.796875 277.109375 L 198.574219 277.109375 L 194.839844 302.511719 C 194.652344 304.003906 195.214844 305.3125 196.519531 306.246094 C 197.640625 306.992188 199.320312 306.992188 200.628906 306.246094 L 247.695312 277.109375 L 285.796875 277.109375 C 297.375 277.109375 306.898438 267.023438 306.898438 254.511719 L 306.898438 213.609375 C 306.898438 201.097656 297.375 191.011719 285.796875 191.011719 Z M 285.796875 191.011719 " fill-opacity="1" fill-rule="nonzero"/></g><g fill="#ffffff" fill-opacity="1"><g transform="translate(92.681857, 130.752903)"><g><path d="M 15.015625 -41.140625 C 19.554688 -41.140625 23.054688 -40.164062 25.515625 -38.21875 C 27.984375 -36.269531 29.21875 -33.269531 29.21875 -29.21875 C 29.21875 -26.738281 28.632812 -24.609375 27.46875 -22.828125 C 26.300781 -21.054688 24.664062 -19.710938 22.5625 -18.796875 C 20.46875 -17.878906 18.066406 -17.421875 15.359375 -17.421875 L 12.546875 -17.421875 L 12.546875 0 L 4.703125 0 L 4.703125 -41.140625 Z M 16.21875 -25.03125 C 19.769531 -25.03125 21.546875 -26.425781 21.546875 -29.21875 C 21.546875 -30.59375 21.066406 -31.644531 20.109375 -32.375 C 19.148438 -33.101562 17.738281 -33.46875 15.875 -33.46875 L 12.546875 -33.46875 L 12.546875 -25.03125 Z M 16.21875 -25.03125 "/></g></g></g><g fill="#ffffff" fill-opacity="1"><g transform="translate(123.613736, 130.752903)"><g><path d="M 7.96875 -33.46875 L 0.625 -33.46875 L 0.625 -41.140625 L 23.375 -41.140625 L 23.375 -33.46875 L 15.8125 -33.46875 L 15.8125 0 L 7.96875 0 Z M 7.96875 -33.46875 "/></g></g></g><g fill="#ffffff" fill-opacity="1"><g transform="translate(197.009845, 258.074867)"><g><path d="M 4.703125 -41.140625 L 27.15625 -41.140625 L 27.15625 -33.515625 L 12.546875 -33.515625 L 12.546875 -26.015625 L 27.15625 -26.015625 L 27.15625 -18.5625 L 12.546875 -18.5625 L 12.546875 -7.671875 L 27.15625 -7.671875 L 27.15625 0 L 4.703125 0 Z M 4.703125 -41.140625 "/></g></g></g><g fill="#ffffff" fill-opacity="1"><g transform="translate(226.746751, 258.074867)"><g><path d="M 29.859375 -41.140625 L 37.703125 -41.140625 L 37.703125 0 L 30.140625 0 L 12.546875 -26.921875 L 12.546875 0 L 4.703125 0 L 4.703125 -41.140625 L 12.203125 -41.140625 L 29.859375 -14.15625 Z M 29.859375 -41.140625 "/></g></g></g></svg>